<svg width="255" height="46" viewBox="0 0 255 46" fill="none" xmlns="http://www.w3.org/2000/svg">
<path d="M46.76 22.8049C46.76 34.9716 36.5721 44.8742 23.9551 44.8742C11.3381 44.8742 1.15019 34.9716 1.15019 22.8049C1.15019 10.6382 11.3381 0.735642 23.9551 0.735642C36.5721 0.735642 46.76 10.6382 46.76 22.8049Z" stroke="#7D7AD8" stroke-width="1.47128"/>
<path d="M115.91 22.8049C115.91 34.9716 105.722 44.8742 93.105 44.8742C80.488 44.8742 70.3001 34.9716 70.3001 22.8049C70.3001 10.6382 80.488 0.735642 93.105 0.735642C105.722 0.735642 115.91 10.6382 115.91 22.8049Z" stroke="#7D7AD8" stroke-width="1.47128"/>
<path d="M185.06 22.8049C185.06 34.9716 174.872 44.8742 162.255 44.8742C149.638 44.8742 139.45 34.9716 139.45 22.8049C139.45 10.6382 149.638 0.735642 162.255 0.735642C174.872 0.735642 185.06 10.6382 185.06 22.8049Z" stroke="#7D7AD8" stroke-width="1.47128"/>
<path d="M254.211 22.8049C254.211 34.9716 244.023 44.8742 231.406 44.8742C218.789 44.8742 208.601 34.9716 208.601 22.8049C208.601 10.6382 218.789 0.735642 231.406 0.735642C244.023 0.735642 254.211 10.6382 254.211 22.8049Z" stroke="#7D7AD8" stroke-width="1.47128"/>
<path d="M10.7182 35.3107L12.5085 28.7323C11.3288 26.7102 10.7091 24.4103 10.7129 22.0692C10.7129 14.7559 16.6412 8.82764 23.9545 8.82764C31.2678 8.82764 37.196 14.7559 37.196 22.0692C37.196 29.3825 31.2678 35.3107 23.9545 35.3107C21.6144 35.3145 19.3155 34.6952 17.294 33.5165L10.7182 35.3107ZM19.1756 15.8563C19.0046 15.8669 18.8375 15.9119 18.6843 15.9887C18.5407 16.07 18.4096 16.1717 18.295 16.2906C18.1361 16.4402 18.0461 16.57 17.9494 16.6958C17.46 17.3327 17.1968 18.1145 17.2013 18.9177C17.2039 19.5665 17.3734 20.1982 17.6382 20.7887C18.1798 21.9831 19.071 23.2477 20.2481 24.4196C20.5315 24.7016 20.8083 24.985 21.1062 25.2485C22.5673 26.5349 24.3083 27.4625 26.191 27.9577L26.9444 28.0729C27.1894 28.0862 27.4343 28.0676 27.6806 28.0557C28.0663 28.0358 28.4428 27.9314 28.7837 27.7498C28.9571 27.6605 29.1263 27.5633 29.2908 27.4585C29.2908 27.4585 29.3477 27.4214 29.4563 27.3393C29.6351 27.2069 29.745 27.1129 29.8933 26.958C30.0032 26.8441 30.0985 26.7104 30.1714 26.5581C30.2747 26.3422 30.3779 25.9304 30.4203 25.5875C30.4521 25.3253 30.4428 25.1823 30.4388 25.0936C30.4336 24.9519 30.3157 24.8049 30.1873 24.7427L29.4166 24.3971C29.4166 24.3971 28.2646 23.8952 27.5615 23.5748C27.4873 23.5424 27.4079 23.524 27.3271 23.5205C27.2365 23.5112 27.1449 23.5214 27.0586 23.5504C26.9723 23.5794 26.8932 23.6265 26.8266 23.6886V23.686C26.8199 23.686 26.7312 23.7615 25.7738 24.9214C25.7189 24.9953 25.6432 25.0511 25.5564 25.0817C25.4696 25.1124 25.3757 25.1165 25.2866 25.0936C25.2003 25.0705 25.1158 25.0413 25.0336 25.0062C24.8695 24.9373 24.8125 24.9108 24.7 24.8618L24.6933 24.8592C23.9358 24.5284 23.2344 24.0817 22.6144 23.535C22.4476 23.3894 22.2926 23.2305 22.1337 23.0769C21.6128 22.578 21.1588 22.0136 20.7831 21.3978L20.705 21.272C20.6489 21.1875 20.6035 21.0963 20.5699 21.0006C20.5196 20.8059 20.6507 20.6497 20.6507 20.6497C20.6507 20.6497 20.9725 20.2975 21.1221 20.1068C21.2467 19.9483 21.3629 19.7835 21.4703 19.6129C21.6266 19.3613 21.6756 19.1031 21.5935 18.9031C21.2227 17.9974 20.8387 17.0957 20.4441 16.2005C20.366 16.0231 20.1343 15.896 19.9237 15.8708C19.8522 15.8629 19.7807 15.8549 19.7092 15.8496C19.5314 15.8408 19.3532 15.8426 19.1756 15.8549V15.8563Z" fill="url(#paint0_linear_123_902)"/>
<path d="M98.2182 24.1321L98.8288 20.1549H95.0123V17.5739C95.0123 16.486 95.5452 15.4249 97.2547 15.4249H98.9895V12.039C98.9895 12.039 97.4154 11.7705 95.9099 11.7705C92.7672 11.7705 90.713 13.6757 90.713 17.1241V20.1556H87.2192V24.1328H90.713V33.7479H95.0123V24.1328L98.2182 24.1321Z" fill="url(#paint1_linear_123_902)"/>
<path d="M162.253 20.1061C160.362 20.1061 158.819 21.6494 158.819 23.5405C158.819 25.4316 160.362 26.9749 162.253 26.9749C164.144 26.9749 165.688 25.4316 165.688 23.5405C165.688 21.6494 164.144 20.1061 162.253 20.1061ZM172.554 23.5405C172.554 22.1183 172.567 20.709 172.487 19.2894C172.407 17.6404 172.031 16.177 170.825 14.9713C169.617 13.7629 168.156 13.3893 166.507 13.3095C165.085 13.2296 163.675 13.2425 162.256 13.2425C160.834 13.2425 159.424 13.2296 158.005 13.3095C156.356 13.3893 154.892 13.7655 153.687 14.9713C152.478 16.1796 152.105 17.6404 152.025 19.2894C151.945 20.7116 151.958 22.1209 151.958 23.5405C151.958 24.9601 151.945 26.372 152.025 27.7916C152.105 29.4405 152.481 30.904 153.687 32.1097C154.895 33.3181 156.356 33.6917 158.005 33.7715C159.427 33.8514 160.836 33.8385 162.256 33.8385C163.678 33.8385 165.087 33.8514 166.507 33.7715C168.156 33.6917 169.619 33.3155 170.825 32.1097C172.033 30.9014 172.407 29.4405 172.487 27.7916C172.569 26.372 172.554 24.9627 172.554 23.5405ZM162.253 28.8248C159.329 28.8248 156.969 26.4648 156.969 23.5405C156.969 20.6162 159.329 18.2562 162.253 18.2562C165.178 18.2562 167.538 20.6162 167.538 23.5405C167.538 26.4648 165.178 28.8248 162.253 28.8248ZM167.754 19.2739C167.071 19.2739 166.52 18.7226 166.52 18.0398C166.52 17.357 167.071 16.8057 167.754 16.8057C168.437 16.8057 168.988 17.357 168.988 18.0398C168.988 18.2019 168.956 18.3625 168.895 18.5123C168.833 18.6621 168.742 18.7983 168.627 18.9129C168.512 19.0275 168.376 19.1184 168.226 19.1804C168.077 19.2423 167.916 19.2741 167.754 19.2739Z" fill="url(#paint2_linear_123_902)"/>
<path d="M244.125 17.4523C243.982 16.9221 243.703 16.4385 243.315 16.05C242.927 15.6615 242.444 15.3817 241.914 15.2387C239.962 14.7139 232.141 14.7139 232.141 14.7139C232.141 14.7139 224.319 14.7139 222.368 15.2359C221.837 15.3785 221.354 15.6581 220.966 16.0466C220.578 16.4352 220.299 16.919 220.157 17.4495C219.635 19.4036 219.635 23.4792 219.635 23.4792C219.635 23.4792 219.635 27.5548 220.157 29.506C220.444 30.5835 221.293 31.4322 222.368 31.7197C224.319 32.2445 232.141 32.2445 232.141 32.2445C232.141 32.2445 239.962 32.2445 241.914 31.7197C242.991 31.4322 243.837 30.5835 244.125 29.506C244.647 27.5548 244.647 23.4792 244.647 23.4792C244.647 23.4792 244.647 19.4036 244.125 17.4523ZM229.656 27.2198V19.7386L236.133 23.4513L229.656 27.2198Z" fill="url(#paint3_linear_123_902)"/>
<defs>
<linearGradient id="paint0_linear_123_902" x1="23.9545" y1="8.82764" x2="23.9545" y2="35.3108" gradientUnits="userSpaceOnUse">
<stop stop-color="#7D7AD8"/>
<stop offset="1" stop-color="#7D7AD8" stop-opacity="0"/>
</linearGradient>
<linearGradient id="paint1_linear_123_902" x1="93.1044" y1="11.7705" x2="93.1044" y2="33.7479" gradientUnits="userSpaceOnUse">
<stop stop-color="#7D7AD8"/>
<stop offset="1" stop-color="#7D7AD8" stop-opacity="0"/>
</linearGradient>
<linearGradient id="paint2_linear_123_902" x1="162.256" y1="13.2417" x2="162.256" y2="33.8393" gradientUnits="userSpaceOnUse">
<stop stop-color="#7D7AD8"/>
<stop offset="1" stop-color="#7D7AD8" stop-opacity="0"/>
</linearGradient>
<linearGradient id="paint3_linear_123_902" x1="232.141" y1="14.7139" x2="232.141" y2="32.2445" gradientUnits="userSpaceOnUse">
<stop stop-color="#7D7AD8"/>
<stop offset="1" stop-color="#7D7AD8" stop-opacity="0"/>
</linearGradient>
</defs>
</svg>
